<?xml version="1.0" encoding="UTF-8"?>
<!DOCTYPE svg PUBLIC "-//W3C//DTD SVG 1.1//EN" "http://www.w3.org/Graphics/SVG/1.1/DTD/svg11.dtd">
<!-- Creator: CorelDRAW -->
<svg xmlns="http://www.w3.org/2000/svg" xml:space="preserve" width="55.3613mm" height="15.035mm" version="1.1" style="shape-rendering:geometricPrecision; text-rendering:geometricPrecision; image-rendering:optimizeQuality; fill-rule:evenodd; clip-rule:evenodd"
viewBox="0 0 1137.94 309.04"
 xmlns:xlink="http://www.w3.org/1999/xlink"
 xmlns:xodm="http://www.corel.com/coreldraw/odm/2003">
 <defs>
  <style type="text/css">
   <![CDATA[
    .fil5 {fill:#FFCC29}
    .fil3 {fill:#009EE0}
    .fil1 {fill:#4ABA00}
    .fil2 {fill:#E30016}
    .fil4 {fill:white}
    .fil0 {fill:#4D4D4D;fill-rule:nonzero}
   ]]>
  </style>
 </defs>
 <g id="Camada_x0020_1">
  <metadata id="CorelCorpID_0Corel-Layer"/>
  <path class="fil0" d="M492.19 239.01l-47.73 -119.33 30.17 0 23.02 60.86c1.36,3.52 2.53,6.59 3.49,9.2 0.97,2.61 1.82,5.06 2.56,7.33 0.74,2.27 1.42,4.57 2.05,6.9 0.62,2.33 1.34,4.97 2.13,7.93l-5.28 0c0.91,-3.86 1.82,-7.3 2.73,-10.31 0.91,-3.01 1.93,-6.14 3.07,-9.38 1.14,-3.24 2.56,-7.13 4.26,-11.68l22.16 -60.86 29.66 0 -48.07 119.33 -24.21 0z"/>
  <path id="_1" class="fil0" d="M578.79 239.01l0 -90.52 27.28 0 0 90.52 -27.28 0zm13.64 -108.42c-5.11,0 -9.12,-1.22 -12.02,-3.66 -2.9,-2.44 -4.35,-5.94 -4.35,-10.48 0,-4.09 1.48,-7.44 4.43,-10.06 2.96,-2.61 6.93,-3.92 11.93,-3.92 5.11,0 9.09,1.22 11.93,3.66 2.84,2.44 4.26,5.88 4.26,10.31 0,4.21 -1.45,7.61 -4.35,10.23 -2.9,2.61 -6.85,3.92 -11.85,3.92z"/>
  <path id="_2" class="fil0" d="M665.9 240.89c-7.84,0 -14.8,-2.02 -20.88,-6.05 -6.08,-4.03 -10.88,-9.6 -14.4,-16.71 -3.52,-7.1 -5.28,-15.2 -5.28,-24.29 0,-9.09 1.76,-17.19 5.28,-24.29 3.52,-7.1 8.35,-12.7 14.49,-16.79 6.14,-4.09 13.18,-6.14 21.14,-6.14 4.09,0 8.01,0.62 11.76,1.87 3.75,1.25 7.16,2.96 10.23,5.11 3.07,2.16 5.57,4.63 7.5,7.42 1.93,2.78 3.07,5.65 3.41,8.61l-6.48 1.53 0 -58.3 27.44 0 0 126.15 -25.4 0 -1.54 -20.63 5.46 0.85c-0.34,2.84 -1.45,5.57 -3.32,8.18 -1.87,2.61 -4.29,4.92 -7.25,6.9 -2.95,1.99 -6.33,3.58 -10.14,4.77 -3.81,1.19 -7.81,1.79 -12.02,1.79zm6.99 -22.67c4.21,0 7.84,-1.02 10.91,-3.07 3.07,-2.05 5.43,-4.89 7.07,-8.52 1.65,-3.64 2.47,-7.9 2.47,-12.79 0,-5 -0.82,-9.32 -2.47,-12.96 -1.65,-3.64 -4.01,-6.48 -7.07,-8.52 -3.07,-2.05 -6.7,-3.07 -10.91,-3.07 -4.21,0 -7.81,1.02 -10.82,3.07 -3.01,2.05 -5.37,4.89 -7.07,8.52 -1.71,3.64 -2.56,7.95 -2.56,12.96 0,4.89 0.85,9.15 2.56,12.79 1.7,3.64 4.06,6.48 7.07,8.52 3.01,2.05 6.62,3.07 10.82,3.07z"/>
  <path id="_3" class="fil0" d="M776.53 240.55c-7.62,0 -14.4,-2.02 -20.37,-6.05 -5.97,-4.03 -10.71,-9.6 -14.23,-16.71 -3.52,-7.1 -5.28,-15.14 -5.28,-24.12 0,-9.21 1.76,-17.33 5.28,-24.38 3.52,-7.05 8.35,-12.59 14.49,-16.62 6.14,-4.03 13.13,-6.05 20.97,-6.05 4.32,0 8.27,0.62 11.85,1.87 3.58,1.25 6.73,2.98 9.46,5.2 2.73,2.22 5.06,4.77 6.99,7.67 1.93,2.9 3.35,5.99 4.26,9.29l-5.63 -0.68 0 -21.48 27.11 0 0 90.52 -27.62 0 0 -21.82 6.14 -0.17c-0.91,3.18 -2.39,6.2 -4.43,9.04 -2.05,2.84 -4.55,5.34 -7.5,7.5 -2.96,2.16 -6.25,3.86 -9.89,5.11 -3.64,1.25 -7.5,1.87 -11.59,1.87zm7.5 -23.01c4.21,0 7.84,-0.97 10.91,-2.9 3.07,-1.93 5.46,-4.69 7.16,-8.27 1.71,-3.58 2.56,-7.81 2.56,-12.7 0,-4.89 -0.85,-9.12 -2.56,-12.7 -1.7,-3.58 -4.09,-6.36 -7.16,-8.35 -3.07,-1.99 -6.7,-2.98 -10.91,-2.98 -4.09,0 -7.64,0.99 -10.65,2.98 -3.01,1.99 -5.37,4.77 -7.07,8.35 -1.71,3.58 -2.56,7.81 -2.56,12.7 0,4.89 0.85,9.12 2.56,12.7 1.7,3.58 4.06,6.33 7.07,8.27 3.01,1.93 6.56,2.9 10.65,2.9z"/>
  <path id="_4" class="fil0" d="M912.91 239.01l0 -119.33 28.98 0 0 119.33 -28.98 0zm13.47 -45.69l0 -24.21 61.71 0 0 24.21 -61.71 0zm0 -48.07l0 -25.57 68.7 0 0 25.57 -68.7 0z"/>
  <path id="_5" class="fil0" d="M1018.26 239.01l0 -119.33 25.91 0 43.47 70.75 -18.58 -0.17 43.98 -70.57 24.89 0 0 119.33 -28.13 0 0 -37.16c0,-10.23 0.25,-19.43 0.77,-27.62 0.51,-8.18 1.39,-16.31 2.64,-24.38l3.24 8.87 -33.07 51.31 -11.25 0 -32.39 -50.97 3.24 -9.21c1.25,7.62 2.13,15.43 2.64,23.44 0.51,8.01 0.77,17.53 0.77,28.55l0 37.16 -28.13 0z"/>
  <path class="fil1" d="M63.36 71.6l296.88 -25.51c16.29,-1.39 29.8,12.53 27.82,28.75l-25.78 211.5c-1.65,13.38 -13.32,23.27 -26.77,22.68l-250.54 -11.27c-12.66,-0.59 -23.01,-10.22 -24.46,-22.75l-20.57 -174.71c-1.65,-14.44 8.9,-27.43 23.41,-28.68z"/>
  <path class="fil2" d="M160.14 286.53l-142.61 17.87 4.75 -6.99 137.86 -10.88zm-121.18 -13.65l185.72 -272.88 189.48 243.41 -375.21 29.47z"/>
  <polygon class="fil3" points="-0,281.06 419.58,247.37 419.58,260.16 -0,293.92 "/>
  <path class="fil4" d="M275.06 300.58l-3.36 0 2.83 -23.34 -6.39 1.98 -0.46 -2.57 8.11 -3.03 2.57 0 -3.3 26.97zm13.85 0.59c-1.52,0 -2.77,-0.2 -3.83,-0.66 -0.99,-0.4 -1.85,-1.19 -2.51,-2.24 -0.66,-1.05 -1.05,-2.44 -1.19,-4.22 -0.07,-1.78 0,-4.02 0.26,-6.73 0.66,-5.27 1.85,-8.97 3.49,-11.01 1.71,-2.04 4.22,-3.1 7.45,-3.1 3.23,0 5.41,0.99 6.53,3.03 1.12,1.98 1.32,5.61 0.73,10.88 -0.66,5.21 -1.85,8.83 -3.63,10.94 -1.71,2.04 -4.22,3.1 -7.32,3.1zm3.23 -25.05c-2.04,0 -3.63,0.79 -4.61,2.37 -0.99,1.58 -1.78,4.48 -2.24,8.7 -0.59,4.35 -0.53,7.25 0,8.77 0.59,1.51 1.91,2.31 4.15,2.31 2.11,0 3.63,-0.79 4.55,-2.31 0.92,-1.52 1.71,-4.42 2.24,-8.77 0.53,-4.22 0.46,-7.12 -0.2,-8.7 -0.59,-1.58 -1.91,-2.37 -3.89,-2.37zm29.73 17.14l-4.55 0 -0.92 7.32 -3.36 0 0.92 -7.32 -12.07 0 0.27 -2.18 14.31 -17.27 3.23 0 -2.05 16.62 4.62 0 -0.4 2.83zm-7.58 -2.83l1.38 -11.08 -9.16 11.08 7.78 0zm14.37 7.84c-0.33,2.77 -1.78,5.27 -4.35,7.45l-3.23 0c2.44,-2.57 3.76,-4.81 4.02,-6.86 0.07,-0.99 -0.07,-1.91 -0.33,-2.9l3.69 0c0.2,0.73 0.26,1.45 0.2,2.31zm15.49 -25.05c2.9,0 4.94,0.92 6.13,2.7 1.19,1.85 1.51,4.95 0.92,9.43 -0.59,4.94 -2.11,8.83 -4.55,11.6 -2.44,2.83 -5.27,4.22 -8.64,4.22 -1.39,0 -2.77,-0.27 -4.15,-0.86l1.19 -2.7c0.86,0.39 1.85,0.59 2.97,0.59 4.09,0 7.05,-2.77 8.77,-8.37 -1.58,0.86 -3.56,1.32 -5.87,1.32 -2.17,0 -3.89,-0.66 -5.21,-1.98 -1.25,-1.32 -1.71,-3.36 -1.32,-6.13 0.13,-1.39 0.46,-2.64 0.86,-3.76 0.46,-1.12 0.99,-2.18 1.78,-3.1 0.72,-0.92 1.71,-1.65 2.9,-2.17 1.19,-0.53 2.64,-0.79 4.22,-0.79zm-6.33 9.82c-0.2,1.78 0.07,3.03 0.79,3.89 0.79,0.79 1.91,1.19 3.3,1.19 2.24,0 4.09,-0.53 5.6,-1.52 0.2,-2.24 0.33,-4.02 0.33,-5.41 0.07,-1.39 -0.13,-2.44 -0.53,-3.17 -0.39,-0.79 -0.86,-1.25 -1.38,-1.52 -0.59,-0.26 -1.32,-0.39 -2.31,-0.39 -1.85,0 -3.23,0.59 -4.09,1.71 -0.86,1.19 -1.45,2.9 -1.71,5.21z"/>
  <path class="fil5" d="M62.77 238.73l-15.63 -71.34 18.66 -1.65 9.56 45.69 17.8 -48.06 18.92 -1.58 -30.19 75.29 -19.12 1.65zm66.59 -62.24l-5.01 56.9 -18.46 1.58 5.08 -56.9 18.39 -1.58zm-17.45 -9.03l0.87 -9.99c0.17,-1.97 1.73,-3.52 3.7,-3.69l10.23 -0.88c2.52,-0.22 4.62,1.9 4.39,4.41l-0.9 9.99c-0.18,1.96 -1.73,3.51 -3.69,3.68l-10.2 0.88c-2.51,0.22 -4.61,-1.88 -4.39,-4.4zm77.58 -15.83l-6.66 74.17c-6.39,2.97 -14.7,4.88 -24.85,5.73 -17.54,1.52 -25.51,-7.19 -23.87,-26.17 0.4,-3.95 1.19,-7.71 2.31,-11.14 1.19,-3.49 2.83,-6.79 4.95,-9.95 2.17,-3.17 5.01,-5.8 8.64,-7.78 3.63,-2.04 7.85,-3.23 12.53,-3.63 2.64,-0.26 5.08,-0.07 7.19,0.46l1.78 -20.17 18 -1.51zm-23.6 65.2l2.64 -30.66c-1.39,-0.26 -3.03,-0.33 -4.75,-0.2 -3.1,0.26 -5.6,2.11 -7.51,5.41 -1.91,3.3 -3.17,7.45 -3.63,12.46 -0.86,9.96 2.04,14.64 8.57,14.04 1.39,-0.13 2.9,-0.46 4.68,-1.05zm76.94 4.22c-4.15,2.64 -8.37,4.09 -12.79,4.48 -5.01,0.4 -8.44,-0.92 -10.48,-4.09 -2.9,3.49 -6.79,5.47 -11.6,5.87 -7.85,0.73 -13.45,-1.51 -16.68,-6.53 -3.23,-5.08 -4.48,-11.74 -3.76,-20.04 0.4,-3.96 1.19,-7.71 2.51,-11.21 1.25,-3.43 3.1,-6.79 5.47,-9.89 2.44,-3.1 5.67,-5.67 9.69,-7.65 4.09,-2.04 8.77,-3.3 14.04,-3.76 6.59,-0.53 13.38,0.46 20.37,3.03l-3.1 35.54c-0.33,2.44 0.66,3.56 2.83,3.36 1.05,-0.07 2.11,-0.4 3.1,-0.92l0.4 11.8zm-24.59 -9.63l2.64 -29.07c-1.25,-0.33 -2.44,-0.4 -3.69,-0.33 -6.39,0.59 -10.15,6.59 -11.14,18.07 -0.4,3.96 0,7.19 1.12,9.76 1.12,2.57 3.03,3.69 5.8,3.49 2.17,-0.2 3.95,-0.86 5.27,-1.91z"/>
  <path class="fil4" d="M298 160.28l-29.8 2.57 -1.25 13.39 27.3 -2.37 -1.25 14.51 -27.36 2.37 -2.83 30.66 -18.73 1.65 6.66 -73.25 48.59 -4.22 -1.32 14.7zm44.63 45.29l-15.49 1.32 -8.04 -30.92 -5.27 41.01 -17.73 1.58 10.88 -73.64 20.31 -1.78 10.35 38.7 17.34 -41.07 20.11 -1.71 -2.17 72.85 -17.93 1.58 1.32 -40.68 -13.65 32.77z"/>
  <path class="fil5" d="M250.6 124.81l0 -0.33 -0.07 -0.4 -0.07 -0.33 -0.07 -0.4 -18.2 -54.59 0.46 -0.66 0.4 -0.66 0.33 -0.66 0.33 -0.73 0.2 -0.73 0.13 -0.79 0.13 -0.73 0 -0.79 -0.07 -0.99 -0.13 -0.92 -0.2 -0.92 -0.33 -0.79 -0.39 -0.86 -0.46 -0.73 -0.53 -0.73 -0.59 -0.66 -0.66 -0.59 -0.73 -0.59 -0.79 -0.46 -0.86 -0.4 -0.86 -0.33 -0.86 -0.2 -0.92 -0.13 -0.92 -0.13 -0.99 0.13 -0.92 0.13 -0.92 0.2 -0.79 0.33 -0.86 0.4 -0.79 0.46 -0.72 0.59 -0.66 0.59 -0.59 0.66 -0.53 0.73 -0.46 0.73 -0.39 0.86 -0.33 0.79 -0.2 0.92 -0.13 0.92 -0.07 0.99 0 0.79 0.13 0.73 0.13 0.79 0.26 0.73 0.26 0.73 0.33 0.66 0.39 0.66 0.46 0.66 -4.81 14.44 -0.07 0.33 -4.35 12.92 -0.07 0.2 -0.07 0.13 -4.29 12.86 0 0.13 -0.07 0.13 -0.07 0.2 -4.29 13.25 -0.2 0.33 -0.07 0.4 0 0.73 0.07 0.33 0.07 0.33 0.13 0.39 0.13 0.27 0.07 0.2 0.07 0.2 0.13 0.13 0.07 0.13 0.2 0.13 0.07 0.13 0.13 0.13 0.13 0.13 0.33 0.26 0.26 0.2 0.4 0.13 0.26 0.13 0.13 0.07 0.26 0 0.07 0 0.13 0 0.13 0.13 0.73 0 0.33 -0.13 0.26 0 0.33 -0.07 0.2 -0.07 0.26 -0.13 0.26 -0.13 0.27 -0.26 0.2 -0.07 0.26 -0.2 0.13 -0.2 0.2 -0.27 0.2 -0.2 0.13 -0.27 0.13 -0.26 0.07 -0.33 3.63 -10.75 29.73 0 3.63 10.75 0.07 0.33 0.2 0.26 0.13 0.27 0.13 0.2 0.2 0.27 0.2 0.2 0.2 0.2 0.2 0.07 0.26 0.26 0.26 0.13 0.27 0.13 0.26 0.07 0.26 0.07 0.27 0 0.33 0.13 0.73 0 0.13 -0.13 0.13 0 0.2 0 0.13 0 0.13 -0.07 0.39 -0.13 0.26 -0.2 0.33 -0.26 0.33 -0.13 0.26 -0.26 0.2 -0.27 0.2 -0.26 0.2 -0.39 0.13 -0.27 0.13 -0.39 0.07 -0.33 0.07 -0.33zm-27.82 -82.48l-2.05 0.33 -1.91 0.4 -1.91 0.79 -1.85 0.86 -1.71 0.99 -1.65 1.25 -1.52 1.38 -1.25 1.32 -1.05 1.32 -0.92 1.51 -0.86 1.52 -0.66 1.58 -0.53 1.65 -0.39 1.58 -0.33 1.71 -0.13 1.65 0 1.71 0.2 1.71 0.26 1.71 0.39 1.65 0.59 1.65 0.73 1.58 0.86 1.58 0.13 0.2 0.13 0.2 0.13 0.2 0.2 0.13 0.2 0.2 0.13 0.13 0.2 0.13 0.2 0.13 0.27 0.13 0.2 0.07 0.2 0.07 0.27 0 0.2 0.13 0.26 0.07 0.2 0 0.26 0 0.27 0 0.26 0 0.2 -0.07 0.33 -0.13 0.2 0 0.26 -0.07 0.2 -0.13 0.2 -0.13 0.33 -0.2 0.27 -0.27 0.26 -0.26 0.26 -0.26 0.07 -0.13 0.13 -0.2 0.07 -0.13 0.07 -0.2 0.06 -0.13 0.07 -0.2 0.06 -0.13 0.13 -0.2 0 -0.4 0 -0.33 0 -0.33 0 -0.26 0 -0.13 0 -0.2 0 -0.13 -0.13 -0.2 -0.06 -0.2 -0.07 -0.13 -0.06 -0.2 -0.07 -0.13 -0.13 -0.13 -0.53 -1.05 -0.46 -0.99 -0.4 -1.12 -0.26 -0.99 -0.13 -1.12 -0.13 -1.19 0 -0.99 0.07 -1.06 0.2 -1.12 0.26 -1.05 0.33 -1.05 0.46 -0.99 0.53 -0.99 0.59 -0.92 0.66 -0.92 0.79 -0.79 0.99 -0.92 1.05 -0.79 1.12 -0.66 1.19 -0.53 1.25 -0.46 1.25 -0.33 1.25 -0.26 1.39 0 1.32 0 1.25 0.26 1.25 0.33 1.25 0.46 1.19 0.53 1.12 0.66 1.05 0.79 1.05 0.92 0.66 0.79 0.73 0.92 0.59 0.92 0.53 0.99 0.46 0.99 0.33 1.05 0.26 1.05 0.13 1.05 0.13 1.12 0 0.99 -0.13 1.19 -0.13 1.06 -0.26 1.05 -0.4 1.05 -0.46 1.05 -0.46 0.99 -0.26 0.33 -0.13 0.33 -0.13 0.39 -0.07 0.33 -0.07 0.39 0 0.33 0.07 0.4 0.07 0.33 0.13 0.33 0.13 0.33 0.13 0.33 0.2 0.33 0.2 0.26 0.26 0.26 0.33 0.27 0.26 0.2 0.26 0.13 0.2 0.07 0.26 0.13 0.27 0 0.2 0.13 0.33 0 0.2 0.07 0.26 0 0.26 0 0.2 -0.07 0.27 0 0.2 -0.13 0.27 0 0.2 -0.07 0.2 -0.07 0.2 -0.13 0.26 -0.13 0.13 -0.13 0.2 -0.13 0.2 -0.2 0.13 -0.13 0.2 -0.2 0.13 -0.2 0.13 -0.2 0.86 -1.58 0.79 -1.58 0.46 -1.65 0.46 -1.65 0.27 -1.71 0.13 -1.71 0.07 -1.71 -0.2 -1.65 -0.27 -1.71 -0.39 -1.58 -0.53 -1.65 -0.66 -1.58 -0.86 -1.52 -0.92 -1.51 -1.12 -1.32 -1.19 -1.32 -1.52 -1.38 -1.65 -1.25 -1.71 -0.99 -1.85 -0.86 -1.91 -0.79 -1.91 -0.4 -2.04 -0.33 -2.04 -0.06 -2.11 0.06zm1.39 30l0.2 0 0.13 0 0.4 0 0.33 0 0.2 0 0.2 0 2.84 8.64 -7.19 0 2.9 -8.64zm-5.34 16.02l12.13 0 1.91 5.87 -16.02 0 1.98 -5.87zm-4.42 13.32l20.97 0 1.91 5.8 -24.85 0 1.98 -5.8z"/>
 </g>
</svg>
