<?xml version="1.0" encoding="UTF-8"?>
<!DOCTYPE svg PUBLIC "-//W3C//DTD SVG 1.1//EN" "http://www.w3.org/Graphics/SVG/1.1/DTD/svg11.dtd">
<!-- Creator: CorelDRAW -->
<svg xmlns="http://www.w3.org/2000/svg" xml:space="preserve" width="42.3547mm" height="9.8637mm" version="1.1" style="shape-rendering:geometricPrecision; text-rendering:geometricPrecision; image-rendering:optimizeQuality; fill-rule:evenodd; clip-rule:evenodd"
viewBox="0 0 679.31 158.2"
 xmlns:xlink="http://www.w3.org/1999/xlink"
 xmlns:xodm="http://www.corel.com/coreldraw/odm/2003">
 <defs>
  <style type="text/css">
   <![CDATA[
    .str0 {stroke:#04D361;stroke-width:2.72;stroke-miterlimit:22.9256}
    .fil2 {fill:#ED3237}
    .fil3 {fill:#04D361}
    .fil1 {fill:#494D4B}
    .fil0 {fill:#4D4D4D;fill-rule:nonzero}
   ]]>
  </style>
 </defs>
 <g id="Camada_x0020_1">
  <metadata id="CorelCorpID_0Corel-Layer"/>
  <path class="fil0" d="M239.9 115.11l-26 -65.02 16.44 0 12.54 33.16c0.74,1.92 1.38,3.59 1.9,5.02 0.53,1.42 0.99,2.76 1.39,3.99 0.4,1.24 0.77,2.49 1.11,3.76 0.34,1.27 0.73,2.71 1.16,4.32l-2.88 0c0.5,-2.1 0.99,-3.98 1.49,-5.62 0.49,-1.64 1.05,-3.34 1.67,-5.11 0.62,-1.77 1.39,-3.89 2.32,-6.36l12.07 -33.16 16.16 0 -26.19 65.02 -13.19 0z"/>
  <path id="_1" class="fil0" d="M287.08 115.11l0 -49.32 14.86 0 0 49.32 -14.86 0zm7.43 -59.07c-2.79,0 -4.97,-0.67 -6.55,-2 -1.58,-1.33 -2.37,-3.23 -2.37,-5.71 0,-2.23 0.81,-4.06 2.42,-5.48 1.61,-1.42 3.78,-2.14 6.5,-2.14 2.79,0 4.95,0.67 6.5,2 1.55,1.33 2.32,3.2 2.32,5.62 0,2.29 -0.79,4.15 -2.37,5.57 -1.58,1.42 -3.73,2.14 -6.45,2.14z"/>
  <path id="_2" class="fil0" d="M334.54 116.13c-4.27,0 -8.07,-1.1 -11.38,-3.3 -3.31,-2.2 -5.93,-5.23 -7.85,-9.1 -1.92,-3.87 -2.88,-8.28 -2.88,-13.24 0,-4.95 0.96,-9.36 2.88,-13.24 1.92,-3.87 4.55,-6.92 7.9,-9.15 3.34,-2.23 7.18,-3.34 11.52,-3.34 2.23,0 4.37,0.34 6.41,1.02 2.04,0.68 3.9,1.61 5.57,2.79 1.67,1.18 3.03,2.52 4.09,4.04 1.05,1.52 1.67,3.08 1.86,4.69l-3.53 0.84 0 -31.76 14.95 0 0 68.73 -13.84 0 -0.84 -11.24 2.97 0.46c-0.19,1.55 -0.79,3.03 -1.81,4.46 -1.02,1.42 -2.34,2.68 -3.95,3.76 -1.61,1.08 -3.45,1.95 -5.53,2.6 -2.07,0.65 -4.26,0.98 -6.55,0.98zm3.81 -12.35c2.29,0 4.27,-0.56 5.94,-1.67 1.67,-1.11 2.96,-2.66 3.85,-4.64 0.9,-1.98 1.35,-4.3 1.35,-6.97 0,-2.72 -0.45,-5.08 -1.35,-7.06 -0.9,-1.98 -2.18,-3.53 -3.85,-4.64 -1.67,-1.11 -3.65,-1.67 -5.94,-1.67 -2.29,0 -4.26,0.56 -5.9,1.67 -1.64,1.11 -2.93,2.66 -3.86,4.64 -0.93,1.98 -1.39,4.33 -1.39,7.06 0,2.66 0.46,4.98 1.39,6.97 0.93,1.98 2.21,3.53 3.86,4.64 1.64,1.11 3.61,1.67 5.9,1.67z"/>
  <path id="_3" class="fil0" d="M394.82 115.94c-4.15,0 -7.85,-1.1 -11.1,-3.3 -3.25,-2.2 -5.84,-5.23 -7.76,-9.1 -1.92,-3.87 -2.88,-8.25 -2.88,-13.14 0,-5.02 0.96,-9.44 2.88,-13.28 1.92,-3.84 4.55,-6.86 7.9,-9.06 3.34,-2.2 7.15,-3.3 11.42,-3.3 2.35,0 4.5,0.34 6.45,1.02 1.95,0.68 3.67,1.62 5.15,2.83 1.49,1.21 2.76,2.6 3.81,4.18 1.05,1.58 1.83,3.27 2.32,5.06l-3.06 -0.37 0 -11.7 14.77 0 0 49.32 -15.05 0 0 -11.89 3.34 -0.09c-0.5,1.73 -1.3,3.37 -2.41,4.92 -1.11,1.55 -2.48,2.91 -4.09,4.09 -1.61,1.18 -3.41,2.11 -5.39,2.79 -1.98,0.68 -4.09,1.02 -6.32,1.02zm4.09 -12.54c2.29,0 4.27,-0.53 5.94,-1.58 1.67,-1.05 2.97,-2.55 3.9,-4.51 0.93,-1.95 1.39,-4.26 1.39,-6.92 0,-2.66 -0.46,-4.97 -1.39,-6.92 -0.93,-1.95 -2.23,-3.47 -3.9,-4.55 -1.67,-1.08 -3.65,-1.62 -5.94,-1.62 -2.23,0 -4.16,0.54 -5.8,1.62 -1.64,1.08 -2.93,2.6 -3.86,4.55 -0.93,1.95 -1.39,4.26 -1.39,6.92 0,2.66 0.46,4.97 1.39,6.92 0.93,1.95 2.21,3.45 3.86,4.51 1.64,1.05 3.58,1.58 5.8,1.58z"/>
  <path id="_4" class="fil0" d="M467.08 116.04c-4.89,0 -9.4,-0.82 -13.51,-2.46 -4.12,-1.64 -7.69,-3.96 -10.73,-6.97 -3.03,-3 -5.37,-6.56 -7.01,-10.68 -1.64,-4.12 -2.46,-8.65 -2.46,-13.61 0,-4.83 0.87,-9.29 2.6,-13.37 1.73,-4.09 4.13,-7.63 7.2,-10.64 3.06,-3 6.69,-5.34 10.87,-7.01 4.18,-1.67 8.75,-2.51 13.7,-2.51 3.1,0 6.13,0.4 9.1,1.21 2.97,0.81 5.74,2 8.31,3.58 2.57,1.58 4.78,3.45 6.64,5.62l-9.66 11.05c-1.3,-1.36 -2.68,-2.55 -4.13,-3.58 -1.45,-1.02 -3.05,-1.81 -4.78,-2.37 -1.73,-0.56 -3.59,-0.84 -5.57,-0.84 -2.48,0 -4.81,0.45 -7.01,1.35 -2.2,0.9 -4.12,2.17 -5.76,3.81 -1.64,1.64 -2.93,3.64 -3.85,5.99 -0.93,2.35 -1.39,4.98 -1.39,7.9 0,2.85 0.47,5.43 1.39,7.75 0.93,2.32 2.23,4.32 3.9,5.99 1.67,1.67 3.7,2.94 6.08,3.81 2.38,0.87 5.03,1.3 7.94,1.3 1.98,0 3.87,-0.28 5.66,-0.84 1.8,-0.56 3.45,-1.32 4.97,-2.28 1.52,-0.96 2.86,-2.06 4.04,-3.3l7.62 12.07c-1.55,1.73 -3.61,3.28 -6.18,4.64 -2.57,1.36 -5.42,2.43 -8.55,3.2 -3.13,0.77 -6.27,1.16 -9.43,1.16z"/>
  <path id="_5" class="fil0" d="M518.63 115.94c-4.15,0 -7.85,-1.1 -11.1,-3.3 -3.25,-2.2 -5.84,-5.23 -7.76,-9.1 -1.92,-3.87 -2.88,-8.25 -2.88,-13.14 0,-5.02 0.96,-9.44 2.88,-13.28 1.92,-3.84 4.55,-6.86 7.9,-9.06 3.34,-2.2 7.15,-3.3 11.42,-3.3 2.35,0 4.5,0.34 6.45,1.02 1.95,0.68 3.67,1.62 5.15,2.83 1.49,1.21 2.76,2.6 3.81,4.18 1.05,1.58 1.83,3.27 2.32,5.06l-3.06 -0.37 0 -11.7 14.77 0 0 49.32 -15.05 0 0 -11.89 3.34 -0.09c-0.5,1.73 -1.3,3.37 -2.41,4.92 -1.11,1.55 -2.48,2.91 -4.09,4.09 -1.61,1.18 -3.41,2.11 -5.39,2.79 -1.98,0.68 -4.09,1.02 -6.32,1.02zm4.09 -12.54c2.29,0 4.27,-0.53 5.94,-1.58 1.67,-1.05 2.97,-2.55 3.9,-4.51 0.93,-1.95 1.39,-4.26 1.39,-6.92 0,-2.66 -0.46,-4.97 -1.39,-6.92 -0.93,-1.95 -2.23,-3.47 -3.9,-4.55 -1.67,-1.08 -3.65,-1.62 -5.94,-1.62 -2.23,0 -4.16,0.54 -5.8,1.62 -1.64,1.08 -2.93,2.6 -3.86,4.55 -0.93,1.95 -1.39,4.26 -1.39,6.92 0,2.66 0.46,4.97 1.39,6.92 0.93,1.95 2.21,3.45 3.86,4.51 1.64,1.05 3.58,1.58 5.8,1.58z"/>
  <path id="_6" class="fil0" d="M578.26 116.04c-4.83,0 -9.09,-0.77 -12.77,-2.32 -3.68,-1.55 -6.61,-3.62 -8.78,-6.22l9.01 -7.8c1.92,1.92 4.09,3.33 6.5,4.23 2.42,0.9 4.71,1.35 6.87,1.35 0.87,0 1.64,-0.09 2.32,-0.28 0.68,-0.19 1.25,-0.45 1.72,-0.79 0.46,-0.34 0.82,-0.74 1.07,-1.21 0.25,-0.47 0.37,-1.01 0.37,-1.63 0,-1.24 -0.56,-2.2 -1.67,-2.88 -0.56,-0.31 -1.49,-0.68 -2.79,-1.11 -1.3,-0.43 -2.97,-0.93 -5.02,-1.49 -2.91,-0.74 -5.43,-1.63 -7.57,-2.65 -2.14,-1.02 -3.89,-2.21 -5.25,-3.58 -1.24,-1.3 -2.2,-2.74 -2.88,-4.32 -0.68,-1.58 -1.02,-3.36 -1.02,-5.34 0,-2.29 0.54,-4.37 1.62,-6.22 1.08,-1.86 2.54,-3.47 4.37,-4.83 1.83,-1.36 3.93,-2.4 6.32,-3.11 2.38,-0.71 4.85,-1.07 7.38,-1.07 2.72,0 5.32,0.31 7.8,0.93 2.48,0.62 4.78,1.49 6.92,2.6 2.14,1.11 4.04,2.45 5.71,3.99l-7.8 8.73c-1.11,-1.05 -2.37,-2 -3.76,-2.83 -1.39,-0.84 -2.83,-1.5 -4.32,-2 -1.49,-0.5 -2.85,-0.74 -4.09,-0.74 -0.93,0 -1.75,0.08 -2.46,0.23 -0.71,0.16 -1.32,0.4 -1.81,0.74 -0.49,0.34 -0.87,0.74 -1.11,1.21 -0.25,0.47 -0.37,1.01 -0.37,1.63 0,0.62 0.17,1.21 0.51,1.76 0.34,0.56 0.82,1.02 1.44,1.39 0.62,0.37 1.61,0.79 2.97,1.25 1.36,0.47 3.22,1.04 5.57,1.72 2.91,0.81 5.42,1.7 7.52,2.69 2.11,0.99 3.78,2.17 5.02,3.53 0.99,1.05 1.73,2.28 2.23,3.67 0.5,1.39 0.74,2.89 0.74,4.51 0,3.16 -0.88,5.96 -2.65,8.41 -1.76,2.45 -4.19,4.36 -7.29,5.76 -3.1,1.39 -6.63,2.09 -10.59,2.09z"/>
  <path id="_7" class="fil0" d="M611.7 115.11l0 -61.76 14.86 0 0 61.76 -14.86 0zm-8.73 -36.32l0 -13 33.16 0 0 13 -33.16 0z"/>
  <path id="_8" class="fil0" d="M644.58 115.11l0 -49.32 14.12 0 0.65 16.07 -2.78 -3.06c0.74,-2.66 1.96,-5.05 3.67,-7.15 1.7,-2.11 3.7,-3.78 5.99,-5.02 2.29,-1.24 4.74,-1.86 7.34,-1.86 1.11,0 2.15,0.09 3.11,0.28 0.96,0.18 1.84,0.4 2.65,0.65l-4.09 16.44c-0.68,-0.43 -1.59,-0.79 -2.74,-1.07 -1.15,-0.28 -2.34,-0.42 -3.58,-0.42 -1.36,0 -2.63,0.23 -3.81,0.7 -1.18,0.46 -2.17,1.13 -2.97,2 -0.81,0.87 -1.44,1.89 -1.91,3.06 -0.46,1.18 -0.7,2.51 -0.7,3.99l0 24.71 -14.95 0z"/>
  <path class="fil1" d="M156.8 77.91c0.11,13.7 -3.4,27.18 -10.15,39.09 -0.88,1.55 -1.8,3.06 -2.78,4.54 -0.48,0.75 -1.11,1.4 -1.85,1.91 -0.74,0.51 -1.57,0.86 -2.44,1.05 -0.88,0.19 -1.78,0.19 -2.66,0.03 -0.88,-0.17 -1.72,-0.51 -2.46,-1 -0.74,-0.49 -1.39,-1.13 -1.88,-1.87 -0.5,-0.74 -0.85,-1.58 -1.02,-2.46 -0.17,-0.88 -0.17,-1.78 0.01,-2.66 0.18,-0.88 0.53,-1.71 1.03,-2.45 6.45,-9.79 10.13,-21.15 10.64,-32.86 0.54,-12.32 -4.03,-32.08 -12.69,-41.46l9.7 -9.7c10.61,13.59 16.5,30.4 16.56,47.83zm-132.65 -34.84c-6.94,10.55 -10.64,22.9 -10.63,35.52 0.01,12.63 3.73,24.97 10.69,35.5 0.99,1.49 1.34,3.32 0.98,5.08 -0.36,1.76 -1.4,3.3 -2.9,4.29 -1.49,0.99 -3.32,1.34 -5.08,0.98 -1.76,-0.36 -3.3,-1.4 -4.29,-2.9 -7.72,-11.72 -12.16,-25.29 -12.84,-39.3 -0.69,-14.01 2.4,-27.96 8.94,-40.37 1.58,-3 3.34,-5.87 5.28,-8.63l9.83 9.83z"/>
  <path class="fil1" d="M43.12 150.04l-3.11 0.63c-4.62,0.93 -9.41,0.06 -13.41,-2.43 -4,-2.49 -6.89,-6.41 -8.09,-10.96 -0.09,-0.35 -0.17,-0.7 -0.25,-1.06l-4.45 -22.11c-0.97,-4.8 0.01,-9.79 2.72,-13.86 2.71,-4.08 6.93,-6.91 11.73,-7.88l3.1 -0.63 5.45 27.06 6.29 31.24z"/>
  <path class="fil2" d="M140.24 30.08l-9.7 9.7c-6.04,-8.17 -13.92,-14.8 -23,-19.37 -9.08,-4.56 -19.1,-6.92 -29.26,-6.89 -22.53,0.04 -42.52,11.87 -54.13,29.55l-9.83 -9.83c7.09,-10.07 16.46,-18.33 27.34,-24.11 10.88,-5.77 22.98,-8.9 35.29,-9.11 0.49,-0.01 0.98,-0.01 1.47,-0.01 11.91,-0.03 23.68,2.67 34.39,7.88 10.71,5.22 20.09,12.81 27.42,22.2z"/>
  <path class="fil1" d="M142.97 114.11l-4.45 22.11c-0.97,4.8 -3.8,9.02 -7.87,11.73 -4.08,2.71 -9.07,3.69 -13.86,2.72l-3.11 -0.63 3.22 -15.97 8.52 -42.33 3.11 0.63c4.8,0.97 9.02,3.8 11.73,7.87 0.37,0.56 0.71,1.15 1.02,1.74 1.93,3.73 2.53,8 1.7,12.12z"/>
  <path class="fil3 str0" d="M31.11 90.48l12.25 60.93c0.74,3.66 4.3,6.03 7.96,5.29 3.66,-0.74 6.03,-4.3 5.29,-7.96l-12.25 -60.93c-0.73,-3.66 -4.3,-6.03 -7.96,-5.29 -3.66,0.73 -6.03,4.3 -5.29,7.95z"/>
  <path class="fil3 str0" d="M112.34 87.76l-12.25 60.93c-0.73,3.66 1.63,7.22 5.29,7.95 3.66,0.74 7.22,-1.63 7.95,-5.29l12.25 -60.93c0.74,-3.66 -1.63,-7.22 -5.29,-7.96 -3.66,-0.73 -7.22,1.63 -7.95,5.29z"/>
 </g>
</svg>
