<?xml version="1.0" encoding="UTF-8"?>
<!DOCTYPE svg PUBLIC "-//W3C//DTD SVG 1.1//EN" "http://www.w3.org/Graphics/SVG/1.1/DTD/svg11.dtd">
<!-- Creator: CorelDRAW 2021 (64 Bit) -->
<svg xmlns="http://www.w3.org/2000/svg" xml:space="preserve" width="7.584mm" height="5.8205mm" version="1.1" style="shape-rendering:geometricPrecision; text-rendering:geometricPrecision; image-rendering:optimizeQuality; fill-rule:evenodd; clip-rule:evenodd"
viewBox="0 0 170.19 130.61"
 xmlns:xlink="http://www.w3.org/1999/xlink"
 xmlns:xodm="http://www.corel.com/coreldraw/odm/2003">
 <defs>
  <style type="text/css">
   <![CDATA[
    .str1 {stroke:#1D6911;stroke-width:11.88;stroke-linecap:round;stroke-linejoin:round;stroke-miterlimit:22.9256}
    .str0 {stroke:white;stroke-width:11.88;stroke-linecap:round;stroke-linejoin:round;stroke-miterlimit:22.9256}
    .fil0 {fill:none}
   ]]>
  </style>
 </defs>
 <g id="Camada_x0020_1">
  <metadata id="CorelCorpID_0Corel-Layer"/>
  <path class="fil0 str0" d="M113.05 87.28l-6.43 0c-1.77,0 -3.38,1 -4.16,2.57l-5.94 11.89c-0.85,1.72 -3.31,1.72 -4.16,0l-14.54 -29.09c-0.85,-1.69 -3.24,-1.73 -4.13,-0.06l-6.62 12.25c-0.81,1.5 -2.39,2.45 -4.1,2.45l-5.8 0"/>
  <path class="fil0 str1" d="M29.04 69.27l-7.27 0c-10.15,0 -17.68,9.42 -15.44,19.31l5.36 23.75c1.63,7.22 8.04,12.35 15.44,12.35l9.47 0c2.54,0 4.42,-2.35 3.86,-4.83l-10.23 -45.29c-7.94,-35.17 18.8,-68.62 54.86,-68.62l0 0 0 0c36.06,0 62.8,33.45 54.86,68.62l-10.22 45.29c-0.56,2.48 1.32,4.83 3.86,4.83l9.47 0c7.4,0 13.81,-5.13 15.44,-12.35l5.36 -23.75c2.23,-9.9 -5.3,-19.31 -15.44,-19.31l-7.27 0"/>
 </g>
</svg>
