<?xml version="1.0" encoding="UTF-8"?>
<!DOCTYPE svg PUBLIC "-//W3C//DTD SVG 1.1//EN" "http://www.w3.org/Graphics/SVG/1.1/DTD/svg11.dtd">
<!-- Creator: CorelDRAW -->
<svg xmlns="http://www.w3.org/2000/svg" xml:space="preserve" width="45.0709mm" height="12.2404mm" version="1.1" style="shape-rendering:geometricPrecision; text-rendering:geometricPrecision; image-rendering:optimizeQuality; fill-rule:evenodd; clip-rule:evenodd"
viewBox="0 0 755.84 205.27"
 xmlns:xlink="http://www.w3.org/1999/xlink"
 xmlns:xodm="http://www.corel.com/coreldraw/odm/2003">
 <defs>
  <style type="text/css">
   <![CDATA[
    .fil5 {fill:#FFCC29}
    .fil3 {fill:#009EE0}
    .fil1 {fill:#4ABA00}
    .fil2 {fill:#E30016}
    .fil4 {fill:white}
    .fil0 {fill:#4D4D4D;fill-rule:nonzero}
   ]]>
  </style>
 </defs>
 <g id="Camada_x0020_1">
  <metadata id="CorelCorpID_0Corel-Layer"/>
  <path class="fil0" d="M326.92 158.76l-31.71 -79.26 20.04 0 15.29 40.42c0.91,2.34 1.68,4.38 2.32,6.11 0.64,1.74 1.21,3.36 1.7,4.87 0.49,1.51 0.94,3.04 1.36,4.59 0.41,1.55 0.89,3.3 1.42,5.26l-3.51 0c0.61,-2.57 1.21,-4.85 1.81,-6.85 0.6,-2 1.28,-4.08 2.04,-6.23 0.75,-2.15 1.7,-4.74 2.83,-7.76l14.72 -40.42 19.7 0 -31.93 79.26 -16.08 0z"/>
  <path id="_1" class="fil0" d="M384.44 158.76l0 -60.13 18.12 0 0 60.13 -18.12 0zm9.06 -72.02c-3.4,0 -6.06,-0.81 -7.98,-2.43 -1.93,-1.62 -2.89,-3.94 -2.89,-6.96 0,-2.72 0.98,-4.94 2.94,-6.68 1.96,-1.74 4.61,-2.6 7.93,-2.6 3.4,0 6.04,0.81 7.93,2.43 1.89,1.62 2.83,3.91 2.83,6.85 0,2.79 -0.96,5.06 -2.89,6.79 -1.93,1.74 -4.55,2.6 -7.87,2.6z"/>
  <path id="_2" class="fil0" d="M442.3 160c-5.21,0 -9.83,-1.34 -13.87,-4.02 -4.04,-2.68 -7.23,-6.38 -9.57,-11.1 -2.34,-4.72 -3.51,-10.1 -3.51,-16.14 0,-6.04 1.17,-11.42 3.51,-16.13 2.34,-4.72 5.55,-8.44 9.62,-11.15 4.08,-2.72 8.76,-4.08 14.04,-4.08 2.72,0 5.32,0.42 7.81,1.25 2.49,0.83 4.76,1.96 6.8,3.4 2.04,1.44 3.7,3.08 4.98,4.93 1.28,1.85 2.04,3.75 2.27,5.72l-4.3 1.02 0 -38.73 18.23 0 0 83.79 -16.87 0 -1.02 -13.7 3.62 0.57c-0.23,1.89 -0.96,3.7 -2.21,5.44 -1.25,1.74 -2.85,3.26 -4.81,4.58 -1.96,1.32 -4.21,2.38 -6.74,3.17 -2.53,0.79 -5.19,1.19 -7.98,1.19zm4.64 -15.06c2.79,0 5.21,-0.68 7.25,-2.04 2.04,-1.36 3.6,-3.24 4.7,-5.66 1.1,-2.41 1.64,-5.25 1.64,-8.49 0,-3.32 -0.55,-6.19 -1.64,-8.6 -1.1,-2.42 -2.66,-4.3 -4.7,-5.66 -2.04,-1.36 -4.45,-2.04 -7.25,-2.04 -2.79,0 -5.19,0.68 -7.19,2.04 -2,1.36 -3.57,3.24 -4.7,5.66 -1.13,2.41 -1.7,5.28 -1.7,8.6 0,3.25 0.57,6.08 1.7,8.49 1.13,2.42 2.7,4.3 4.7,5.66 2,1.36 4.4,2.04 7.19,2.04z"/>
  <path id="_3" class="fil0" d="M515.79 159.78c-5.06,0 -9.57,-1.34 -13.53,-4.02 -3.96,-2.68 -7.11,-6.38 -9.45,-11.1 -2.34,-4.72 -3.51,-10.06 -3.51,-16.02 0,-6.11 1.17,-11.51 3.51,-16.19 2.34,-4.68 5.55,-8.36 9.62,-11.04 4.08,-2.68 8.72,-4.02 13.93,-4.02 2.87,0 5.49,0.42 7.87,1.25 2.38,0.83 4.47,1.98 6.28,3.45 1.81,1.47 3.36,3.17 4.64,5.1 1.28,1.92 2.23,3.98 2.83,6.17l-3.74 -0.45 0 -14.27 18 0 0 60.13 -18.34 0 0 -14.49 4.08 -0.11c-0.6,2.11 -1.59,4.11 -2.94,6 -1.36,1.89 -3.02,3.55 -4.98,4.98 -1.96,1.44 -4.15,2.57 -6.57,3.4 -2.41,0.83 -4.98,1.25 -7.7,1.25zm4.98 -15.29c2.79,0 5.21,-0.64 7.25,-1.92 2.04,-1.28 3.62,-3.11 4.76,-5.49 1.13,-2.38 1.7,-5.19 1.7,-8.44 0,-3.25 -0.57,-6.06 -1.7,-8.44 -1.13,-2.38 -2.72,-4.23 -4.76,-5.55 -2.04,-1.32 -4.45,-1.98 -7.25,-1.98 -2.72,0 -5.08,0.66 -7.08,1.98 -2,1.32 -3.57,3.17 -4.7,5.55 -1.13,2.38 -1.7,5.19 -1.7,8.44 0,3.24 0.57,6.06 1.7,8.44 1.13,2.38 2.7,4.21 4.7,5.49 2,1.28 4.36,1.92 7.08,1.92z"/>
  <path id="_4" class="fil0" d="M606.37 158.76l0 -79.26 19.25 0 0 79.26 -19.25 0zm8.95 -30.35l0 -16.08 40.99 0 0 16.08 -40.99 0zm0 -31.93l0 -16.98 45.63 0 0 16.98 -45.63 0z"/>
  <path id="_5" class="fil0" d="M676.35 158.76l0 -79.26 17.21 0 28.87 46.99 -12.34 -0.11 29.21 -46.88 16.53 0 0 79.26 -18.68 0 0 -24.68c0,-6.8 0.17,-12.91 0.51,-18.34 0.34,-5.44 0.92,-10.83 1.75,-16.19l2.15 5.89 -21.97 34.08 -7.47 0 -21.51 -33.86 2.15 -6.11c0.83,5.06 1.42,10.25 1.76,15.57 0.34,5.32 0.51,11.64 0.51,18.97l0 24.68 -18.68 0z"/>
  <path class="fil1" d="M42.08 47.56l197.2 -16.95c10.82,-0.92 19.79,8.32 18.48,19.09l-17.12 140.48c-1.09,8.89 -8.85,15.46 -17.78,15.06l-166.41 -7.49c-8.41,-0.39 -15.28,-6.79 -16.25,-15.11l-13.66 -116.05c-1.1,-9.59 5.91,-18.22 15.55,-19.05z"/>
  <path class="fil2" d="M106.37 190.32l-94.72 11.87 3.15 -4.64 91.57 -7.23zm-80.49 -9.06l123.36 -181.26 125.86 161.68 -249.22 19.58z"/>
  <polygon class="fil3" points="-0,186.69 278.69,164.31 278.69,172.8 -0,195.23 "/>
  <path class="fil4" d="M182.7 199.65l-2.23 0 1.88 -15.5 -4.25 1.31 -0.31 -1.71 5.39 -2.01 1.71 0 -2.19 17.91zm9.2 0.39c-1.01,0 -1.84,-0.13 -2.54,-0.44 -0.66,-0.26 -1.23,-0.79 -1.66,-1.49 -0.44,-0.7 -0.7,-1.62 -0.79,-2.8 -0.04,-1.18 0,-2.67 0.18,-4.47 0.44,-3.5 1.23,-5.96 2.32,-7.31 1.14,-1.36 2.8,-2.06 4.95,-2.06 2.14,0 3.59,0.66 4.34,2.02 0.74,1.31 0.88,3.72 0.48,7.23 -0.44,3.46 -1.23,5.87 -2.41,7.27 -1.14,1.36 -2.8,2.06 -4.86,2.06zm2.15 -16.64c-1.36,0 -2.41,0.53 -3.07,1.58 -0.66,1.05 -1.18,2.98 -1.49,5.78 -0.39,2.89 -0.35,4.82 0,5.82 0.39,1.01 1.27,1.53 2.76,1.53 1.4,0 2.41,-0.52 3.02,-1.53 0.61,-1.01 1.14,-2.93 1.49,-5.82 0.35,-2.8 0.31,-4.73 -0.13,-5.78 -0.39,-1.05 -1.27,-1.58 -2.58,-1.58zm19.75 11.39l-3.02 0 -0.61 4.86 -2.23 0 0.61 -4.86 -8.01 0 0.17 -1.45 9.5 -11.47 2.14 0 -1.36 11.04 3.07 0 -0.26 1.88zm-5.04 -1.88l0.92 -7.36 -6.09 7.36 5.17 0zm9.55 5.21c-0.22,1.84 -1.18,3.5 -2.89,4.95l-2.14 0c1.62,-1.71 2.5,-3.2 2.67,-4.55 0.05,-0.66 -0.04,-1.27 -0.22,-1.93l2.45 0c0.13,0.48 0.17,0.96 0.13,1.53zm10.29 -16.64c1.93,0 3.29,0.61 4.07,1.8 0.79,1.23 1.01,3.29 0.61,6.26 -0.39,3.29 -1.4,5.87 -3.02,7.71 -1.62,1.88 -3.5,2.8 -5.74,2.8 -0.92,0 -1.84,-0.17 -2.76,-0.57l0.79 -1.8c0.57,0.26 1.23,0.39 1.97,0.39 2.72,0 4.69,-1.84 5.82,-5.56 -1.05,0.57 -2.37,0.88 -3.9,0.88 -1.44,0 -2.58,-0.44 -3.46,-1.31 -0.83,-0.88 -1.14,-2.23 -0.88,-4.07 0.09,-0.92 0.31,-1.75 0.57,-2.5 0.31,-0.74 0.66,-1.45 1.18,-2.06 0.48,-0.61 1.14,-1.09 1.93,-1.44 0.79,-0.35 1.75,-0.53 2.8,-0.53zm-4.2 6.53c-0.13,1.18 0.04,2.01 0.52,2.58 0.53,0.52 1.27,0.79 2.19,0.79 1.49,0 2.72,-0.35 3.72,-1.01 0.13,-1.49 0.22,-2.67 0.22,-3.59 0.05,-0.92 -0.09,-1.62 -0.35,-2.1 -0.26,-0.53 -0.57,-0.83 -0.92,-1.01 -0.39,-0.17 -0.88,-0.26 -1.53,-0.26 -1.23,0 -2.14,0.39 -2.72,1.14 -0.57,0.79 -0.96,1.93 -1.14,3.46z"/>
  <path class="fil5" d="M41.69 158.57l-10.38 -47.38 12.39 -1.1 6.35 30.35 11.82 -31.92 12.57 -1.05 -20.06 50.01 -12.7 1.1zm44.23 -41.34l-3.33 37.79 -12.26 1.05 3.37 -37.79 12.22 -1.05zm-11.59 -6l0.58 -6.63c0.11,-1.31 1.15,-2.34 2.46,-2.45l6.8 -0.58c1.67,-0.14 3.07,1.26 2.91,2.93l-0.6 6.63c-0.12,1.3 -1.15,2.33 -2.45,2.44l-6.77 0.58c-1.67,0.14 -3.06,-1.25 -2.92,-2.92zm51.53 -10.51l-4.42 49.27c-4.25,1.97 -9.77,3.24 -16.51,3.81 -11.65,1.01 -16.95,-4.77 -15.85,-17.39 0.26,-2.63 0.79,-5.12 1.53,-7.4 0.79,-2.32 1.88,-4.51 3.28,-6.61 1.45,-2.1 3.33,-3.85 5.74,-5.17 2.41,-1.36 5.21,-2.15 8.32,-2.41 1.75,-0.18 3.37,-0.04 4.77,0.31l1.18 -13.4 11.96 -1.01zm-15.68 43.31l1.75 -20.36c-0.92,-0.18 -2.01,-0.22 -3.15,-0.13 -2.06,0.18 -3.72,1.4 -4.99,3.59 -1.27,2.19 -2.1,4.95 -2.41,8.28 -0.57,6.61 1.36,9.72 5.69,9.33 0.92,-0.09 1.93,-0.31 3.11,-0.7zm51.11 2.8c-2.76,1.75 -5.56,2.72 -8.5,2.98 -3.33,0.26 -5.61,-0.61 -6.96,-2.72 -1.93,2.32 -4.51,3.64 -7.71,3.9 -5.21,0.48 -8.93,-1.01 -11.08,-4.34 -2.15,-3.37 -2.98,-7.79 -2.5,-13.31 0.26,-2.63 0.79,-5.12 1.66,-7.45 0.83,-2.28 2.06,-4.51 3.63,-6.57 1.62,-2.06 3.77,-3.76 6.44,-5.08 2.72,-1.36 5.82,-2.19 9.33,-2.5 4.38,-0.35 8.89,0.31 13.53,2.01l-2.06 23.6c-0.22,1.62 0.44,2.36 1.88,2.23 0.7,-0.04 1.4,-0.26 2.06,-0.61l0.26 7.84zm-16.34 -6.39l1.75 -19.31c-0.83,-0.22 -1.62,-0.26 -2.45,-0.22 -4.25,0.39 -6.74,4.38 -7.4,12 -0.26,2.63 0,4.77 0.74,6.48 0.74,1.71 2.02,2.45 3.85,2.32 1.45,-0.13 2.63,-0.57 3.5,-1.27z"/>
  <path class="fil4" d="M197.94 106.46l-19.79 1.71 -0.83 8.89 18.13 -1.58 -0.83 9.63 -18.17 1.58 -1.88 20.36 -12.44 1.1 4.42 -48.65 32.28 -2.8 -0.88 9.77zm29.65 30.09l-10.29 0.88 -5.34 -20.54 -3.5 27.24 -11.78 1.05 7.23 -48.91 13.49 -1.18 6.88 25.7 11.52 -27.28 13.36 -1.14 -1.44 48.39 -11.91 1.05 0.88 -27.02 -9.06 21.76z"/>
  <path class="fil5" d="M166.45 82.9l0 -0.22 -0.04 -0.26 -0.04 -0.22 -0.04 -0.26 -12.09 -36.26 0.31 -0.44 0.26 -0.44 0.22 -0.44 0.22 -0.48 0.13 -0.48 0.09 -0.53 0.09 -0.48 0 -0.52 -0.04 -0.66 -0.09 -0.61 -0.13 -0.61 -0.22 -0.52 -0.26 -0.57 -0.31 -0.48 -0.35 -0.48 -0.39 -0.44 -0.44 -0.39 -0.48 -0.39 -0.53 -0.31 -0.57 -0.26 -0.57 -0.22 -0.57 -0.13 -0.61 -0.09 -0.61 -0.09 -0.66 0.09 -0.61 0.09 -0.61 0.13 -0.52 0.22 -0.57 0.26 -0.52 0.31 -0.48 0.39 -0.44 0.39 -0.4 0.44 -0.35 0.48 -0.31 0.48 -0.26 0.57 -0.22 0.52 -0.13 0.61 -0.09 0.61 -0.04 0.66 0 0.52 0.09 0.48 0.09 0.53 0.18 0.48 0.17 0.48 0.22 0.44 0.26 0.44 0.31 0.44 -3.2 9.59 -0.04 0.22 -2.89 8.58 -0.04 0.13 -0.04 0.09 -2.85 8.54 0 0.09 -0.04 0.09 -0.05 0.13 -2.85 8.8 -0.13 0.22 -0.04 0.26 0 0.48 0.04 0.22 0.04 0.22 0.09 0.26 0.09 0.17 0.04 0.13 0.05 0.13 0.09 0.09 0.04 0.09 0.13 0.09 0.05 0.09 0.09 0.09 0.09 0.09 0.22 0.18 0.18 0.13 0.26 0.09 0.17 0.09 0.09 0.04 0.18 0 0.04 0 0.09 0 0.09 0.09 0.48 0 0.22 -0.09 0.17 0 0.22 -0.04 0.13 -0.05 0.18 -0.09 0.17 -0.09 0.18 -0.17 0.13 -0.04 0.17 -0.13 0.09 -0.13 0.13 -0.18 0.13 -0.13 0.09 -0.18 0.09 -0.17 0.04 -0.22 2.41 -7.14 19.75 0 2.41 7.14 0.04 0.22 0.13 0.17 0.09 0.18 0.09 0.13 0.13 0.18 0.13 0.13 0.13 0.13 0.13 0.04 0.18 0.17 0.17 0.09 0.17 0.09 0.18 0.05 0.17 0.04 0.18 0 0.22 0.09 0.48 0 0.09 -0.09 0.09 0 0.13 0 0.09 0 0.09 -0.04 0.26 -0.09 0.17 -0.13 0.22 -0.17 0.22 -0.09 0.17 -0.17 0.13 -0.17 0.13 -0.18 0.13 -0.26 0.09 -0.17 0.09 -0.26 0.04 -0.22 0.04 -0.22zm-18.48 -54.78l-1.36 0.22 -1.27 0.26 -1.27 0.52 -1.23 0.57 -1.14 0.66 -1.1 0.83 -1.01 0.92 -0.83 0.88 -0.7 0.88 -0.61 1.01 -0.57 1.01 -0.44 1.05 -0.35 1.1 -0.26 1.05 -0.22 1.14 -0.09 1.09 0 1.14 0.13 1.14 0.18 1.14 0.26 1.1 0.39 1.1 0.48 1.05 0.57 1.05 0.09 0.13 0.09 0.13 0.09 0.13 0.13 0.09 0.13 0.13 0.09 0.09 0.13 0.09 0.13 0.09 0.17 0.09 0.13 0.04 0.13 0.04 0.17 0 0.13 0.09 0.18 0.04 0.13 0 0.18 0 0.17 0 0.18 0 0.13 -0.04 0.22 -0.09 0.13 0 0.18 -0.04 0.13 -0.09 0.13 -0.09 0.22 -0.13 0.17 -0.18 0.18 -0.17 0.17 -0.17 0.04 -0.09 0.09 -0.13 0.04 -0.09 0.05 -0.13 0.04 -0.09 0.04 -0.13 0.04 -0.09 0.09 -0.13 0 -0.26 0 -0.22 0 -0.22 0 -0.18 0 -0.09 0 -0.13 0 -0.09 -0.09 -0.13 -0.04 -0.13 -0.04 -0.09 -0.04 -0.13 -0.05 -0.09 -0.09 -0.09 -0.35 -0.7 -0.31 -0.66 -0.26 -0.74 -0.17 -0.66 -0.09 -0.74 -0.09 -0.79 0 -0.66 0.04 -0.7 0.13 -0.74 0.17 -0.7 0.22 -0.7 0.31 -0.66 0.35 -0.66 0.39 -0.61 0.44 -0.61 0.53 -0.53 0.66 -0.61 0.7 -0.53 0.74 -0.44 0.79 -0.35 0.83 -0.31 0.83 -0.22 0.83 -0.17 0.92 0 0.88 0 0.83 0.17 0.83 0.22 0.83 0.31 0.79 0.35 0.74 0.44 0.7 0.53 0.7 0.61 0.44 0.53 0.48 0.61 0.39 0.61 0.35 0.66 0.31 0.66 0.22 0.7 0.17 0.7 0.09 0.7 0.09 0.74 0 0.66 -0.09 0.79 -0.09 0.7 -0.17 0.7 -0.26 0.7 -0.31 0.7 -0.31 0.66 -0.18 0.22 -0.09 0.22 -0.09 0.26 -0.04 0.22 -0.05 0.26 0 0.22 0.05 0.26 0.04 0.22 0.09 0.22 0.09 0.22 0.09 0.22 0.13 0.22 0.13 0.17 0.18 0.17 0.22 0.18 0.18 0.13 0.17 0.09 0.13 0.05 0.18 0.09 0.17 0 0.13 0.09 0.22 0 0.13 0.04 0.18 0 0.18 0 0.13 -0.04 0.17 0 0.13 -0.09 0.17 0 0.13 -0.04 0.13 -0.04 0.13 -0.09 0.17 -0.09 0.09 -0.09 0.13 -0.09 0.13 -0.13 0.09 -0.09 0.13 -0.13 0.09 -0.13 0.09 -0.13 0.57 -1.05 0.52 -1.05 0.31 -1.1 0.31 -1.1 0.17 -1.14 0.09 -1.14 0.04 -1.14 -0.13 -1.09 -0.17 -1.14 -0.26 -1.05 -0.35 -1.1 -0.44 -1.05 -0.57 -1.01 -0.61 -1.01 -0.74 -0.88 -0.79 -0.88 -1.01 -0.92 -1.09 -0.83 -1.14 -0.66 -1.23 -0.57 -1.27 -0.52 -1.27 -0.26 -1.36 -0.22 -1.36 -0.04 -1.4 0.04zm0.92 19.93l0.13 0 0.09 0 0.26 0 0.22 0 0.13 0 0.13 0 1.88 5.74 -4.77 0 1.93 -5.74zm-3.55 10.64l8.06 0 1.27 3.9 -10.64 0 1.31 -3.9zm-2.93 8.85l13.93 0 1.27 3.85 -16.51 0 1.31 -3.85z"/>
 </g>
</svg>
